<?xml version="1.0" encoding="UTF-8"?>
<svg width="24px" height="24px" viewBox="0 0 24 24" version="1.1" xmlns="http://www.w3.org/2000/svg" xmlns:xlink="http://www.w3.org/1999/xlink">
    <g stroke="none" stroke-width="1" fill="none" fill-rule="evenodd">
        <g fill="currentColor">
            <path d="M7,18 C5.9,18 5.01,18.9 5.01,20 C5.01,21.1 5.9,22 7,22 C8.1,22 9,21.1 9,20 C9,18.9 8.1,18 7,18 Z M17,18 C15.9,18 15.01,18.9 15.01,20 C15.01,21.1 15.9,22 17,22 C18.1,22 19,21.1 19,20 C19,18.9 18.1,18 17,18 Z M7.17,14.75 L7.2,14.63 L8.1,13 L15.55,13 C16.3,13 16.96,12.59 17.3,11.97 L21.16,4.96 L19.42,4 L15.55,11 L8.53,11 L4.27,2 L1.4,2 L1.4,4 L3.4,4 L7.4,12.67 L6.4,14.37 C6.15,14.78 6,15.19 6,15.75 C6,16.5 6.5,17 7.25,17 L19,17 L19,15 L7.5,15 C7.36,15 7.24,14.91 7.17,14.75 Z"></path>
        </g>
    </g>
</svg> 