<?xml version="1.0" encoding="UTF-8"?>
<svg id="Layer_2" data-name="Layer 2" xmlns="http://www.w3.org/2000/svg" viewBox="0 0 489.36 112.88">
  <defs>
    <style>
      .cls-1, .cls-2, .cls-3, .cls-4, .cls-5 {
        fill: #fff;
      }

      .cls-2 {
        stroke-width: .17px;
      }

      .cls-2, .cls-3, .cls-6, .cls-7, .cls-4, .cls-8, .cls-9, .cls-10, .cls-11, .cls-12, .cls-5, .cls-13, .cls-14, .cls-15 {
        stroke-miterlimit: 10;
      }

      .cls-2, .cls-3, .cls-6, .cls-4, .cls-8, .cls-9, .cls-10, .cls-11, .cls-12, .cls-5, .cls-13, .cls-14, .cls-15 {
        stroke: #462b22;
      }

      .cls-3 {
        stroke-width: .13px;
      }

      .cls-16 {
        fill: #43302a;
      }

      .cls-6, .cls-8, .cls-11 {
        fill: #ad7449;
      }

      .cls-6, .cls-13 {
        stroke-width: .09px;
      }

      .cls-7 {
        stroke: #442f2a;
      }

      .cls-7, .cls-9 {
        fill: none;
      }

      .cls-7, .cls-12 {
        stroke-width: .12px;
      }

      .cls-17 {
        fill: #8a4849;
      }

      .cls-4 {
        stroke-width: .15px;
      }

      .cls-8, .cls-10 {
        stroke-width: .09px;
      }

      .cls-9 {
        stroke-width: .11px;
      }

      .cls-10, .cls-13, .cls-14, .cls-15 {
        fill: #d3966a;
      }

      .cls-11, .cls-14 {
        stroke-width: .29px;
      }

      .cls-12 {
        fill: #ffd8b7;
      }

      .cls-5 {
        stroke-width: .23px;
      }

      .cls-18 {
        fill: #442f2a;
      }

      .cls-19 {
        fill: #b6e9ff;
      }

      .cls-20 {
        fill: #462b22;
      }

      .cls-15 {
        stroke-width: .14px;
      }
    </style>
  </defs>
  <g id="Layer_1-2" data-name="Layer 1">
    <g>
      <g>
        <g>
          <path class="cls-5" d="m144.5,106.03l-.74,4.64-1.38,2.09s-.01,0-.01,0l-.1-1.27-.23-1.24-.34-1.84-.33-1.82-.02-1.12c1.3.59,2.24.73,3.16.56Z"/>
          <path class="cls-5" d="m146.26,105.26s-.08,2.88-.77,3.81c-.94.95-1.73,1.6-1.73,1.6l.74-4.64c.68-.13,1.26-.41,1.76-.77Z"/>
          <path class="cls-5" d="m148.51,102.18l-.1.93c-.24,2.15-1.25,4.27-2.89,5.93l-.03.03c.69-.93.77-3.81.77-3.81,1.59-1.15,2.25-3.08,2.25-3.08Z"/>
        </g>
        <g>
          <path class="cls-5" d="m129.48,106.03l.74,4.64,1.38,2.09s.01,0,.01,0l.1-1.27.23-1.24.34-1.84.33-1.82.02-1.12c-1.3.59-2.24.73-3.16.56Z"/>
          <path class="cls-5" d="m127.72,105.26s.08,2.88.77,3.81c.94.95,1.73,1.6,1.73,1.6l-.74-4.64c-.68-.13-1.26-.41-1.76-.77Z"/>
          <path class="cls-5" d="m125.47,102.18l.1.93c.24,2.15,1.25,4.27,2.89,5.93l.03.03c-.69-.93-.77-3.81-.77-3.81-1.59-1.15-2.25-3.08-2.25-3.08Z"/>
        </g>
        <g>
          <path class="cls-8" d="m134.46,99.79c.09,4.36-.75,5.52-.75,5.52-1.96,4.84-6.81,1.36-6.81,1.36-.11-.09-.22-.18-.32-.29,0,0,7.13-2.93,6.01-8.72s4.08-4.94,4.08-4.94c-2.4.04-2.21,7.07-2.21,7.07Z"/>
          <path class="cls-10" d="m143.67,107.87c-2.47.39-3.6-1.8-4.07-2.56-.65-1.07-.75-5.42-.75-5.42.19-7.07-2.05-7.17-2.05-7.17-.04,0-.08,0-.12,0,0,0-5.2-.84-4.08,4.94s-6.01,8.72-6.01,8.72c-.17-.16-.33-.34-.49-.54-.02-.02-.04-.05-.06-.07-4.63-5.91-3.8-24.67-3.8-24.67,1.96.9,3.82,1.66,5.58,2.29h0s0,0,0,0c.2.11,6.65,3.64,12.89,4.19,6.35.56,6.9,4.39,6.9,4.39,0,0,1.8,12.01-3.95,15.89Z"/>
          <path class="cls-8" d="m147.34,105.89c-1.47,1.25-2.68,1.82-3.67,1.98,5.75-3.88,3.95-15.89,3.95-15.89,0,0-.56-3.83-6.9-4.39-6.25-.55-12.69-4.08-12.89-4.19,14.38,5.19,22.22,2.35,22.22,2.35l.65.58c1.31,15.59-3.36,19.56-3.36,19.56Z"/>
        </g>
      </g>
      <g>
        <path class="cls-19" d="m164.43,2.98c4.27,0,7.73,3.18,7.73,7.1v42.48c0,26.28-12.27,39.42-36.94,39.42s-35.67-10.51-36.88-34.18c-.05-1.06.87-1.95,2.02-1.95h21.19c.84,0,1.51.62,1.54,1.39.3,6.71,4.22,10.12,11.86,10.12s11.88-3.7,11.88-10.97v-24.77h-3.01c-9.01,0-16.84-4.68-20.75-11.54-1.71-2.99-2.67-6.39-2.67-10h0c0-3.92,3.46-7.1,7.73-7.1h36.31Z"/>
        <path class="cls-19" d="m354.25,2.98c-24.53,0-37.07,12.16-37.72,36.47-.02.66-.03,1.34-.03,2.02v38.49c0,7.6,6,11.96,13.07,11.96s12.81-4.36,12.81-11.96v-7.41c0-3.13,1.36-5.97,3.55-8.02,2.2-2.05,5.24-3.32,8.59-3.32,6.7,0,12.14,5.08,12.14,11.34v7.41c0,7.6,5.86,11.96,12.93,11.96s12.94-4.36,12.94-11.96v-38.49c0-25.66-12.81-38.49-38.28-38.49Zm.27,43.07c-8.57,0-15.51-6.48-15.51-14.48s6.94-14.47,15.51-14.47,15.5,6.48,15.5,14.47-6.94,14.48-15.5,14.48Z"/>
        <g>
          <path class="cls-19" d="m308.27,41.54v38.44c0,7.59-6,11.94-12.94,11.94s-12.94-4.36-12.94-11.94v-42.17c0-7.09-4-10.7-12.14-10.7s-12.14,3.61-12.14,10.7v42.17c0,7.59-6,11.94-12.81,11.94-3.21,0-6.19-.89-8.49-2.59,13.82-4.92,20.69-16.87,20.69-35.85V15.04c0-4.15-1.79-7.33-4.57-9.36,4.83-1.73,10.52-2.58,17.05-2.58,25.47,0,38.28,12.81,38.28,38.44Z"/>
          <path class="cls-19" d="m232.24,41.54v38.44c0,4.15,1.8,7.33,4.58,9.36-4.83,1.73-10.52,2.59-17.05,2.59-25.47,0-38.28-12.81-38.28-38.44V15.04c0-7.59,6-11.94,12.94-11.94s12.94,4.35,12.94,11.94v42.17c0,7.09,4,10.7,12.14,10.7s12.14-3.61,12.14-10.7V15.04c0-7.59,6-11.94,12.81-11.94,3.2,0,6.19.89,8.5,2.58-13.82,4.92-20.7,16.87-20.7,35.85Z"/>
        </g>
        <path class="cls-19" d="m435.43,44.95c-2.85-12.56-4.36-25.14-5.54-37.89-.86-5.29,5.29-9.02,9.62-5.95.33.2,1.35.78,1.69,1,15.34,9.01,30.39,19.01,44.75,29.48,3.67,2.33,4.63,8.19,1.62,11.53-1.84,2-3.79,4.21-5.66,6.17-14.48,15.31-29.47,30.11-46.48,42.7,3.33-6.34,7.08-12.31,10.92-18.2,9.21-13.98,19.32-27.28,29.99-40.14-2.71,2.9-1.87,8.04,1.16,10.03-14.77-9.9-29.31-20.61-43.04-31.93,0,0-1.01-.83-1.01-.83l-.5-.42c2.81,2.06,7.27.4,7.97-3.06.07-.39.17-.93.13-1.18,0,0-.01.16-.01.16l-.06.65c-1.18,12.75-2.69,25.33-5.54,37.89h0Z"/>
        <path class="cls-19" d="m53.93,49.98c2.85,12.56,4.36,25.14,5.54,37.89.86,5.29-5.29,9.02-9.62,5.95-.33-.2-1.35-.78-1.69-1-15.34-9.01-30.39-19.01-44.75-29.48-3.67-2.33-4.63-8.19-1.62-11.53,1.84-2,3.79-4.21,5.66-6.17C21.93,30.34,36.92,15.54,53.93,2.95c-3.33,6.34-7.08,12.31-10.92,18.2-9.21,13.98-19.32,27.28-29.99,40.14,2.71-2.9,1.87-8.04-1.16-10.03,14.77,9.9,29.31,20.61,43.04,31.93,0,0,1.01.83,1.01.83l.5.42c-2.81-2.06-7.27-.4-7.97,3.06-.07.39-.17.93-.13,1.18,0,0,.01-.16.01-.16l.06-.65c1.18-12.75,2.69-25.33,5.54-37.89h0Z"/>
      </g>
      <g>
        <g>
          <path class="cls-2" d="m127.39,81.7l1.28,3.27-.16,1.77s0,0-.01,0l-.56-.81-.64-.75-.95-1.12-.94-1.11-.45-.73c1.14.03,1.85-.14,2.43-.51Z"/>
          <path class="cls-2" d="m128.32,80.7s1.06,1.93.94,2.73c-.29.89-.59,1.54-.59,1.54l-1.28-3.27c.43-.27.73-.63.93-1Z"/>
          <path class="cls-2" d="m128.71,78.04l.29.64c.67,1.49.77,3.17.27,4.72v.03c.11-.8-.95-2.73-.95-2.73.67-1.21.39-2.66.39-2.66Z"/>
        </g>
        <g>
          <path class="cls-13" d="m126.03,72.46s3.61,5.13-.19,7.46c0,0-2.36,1.53-6.36-1.78-.27-.51-.5-1.01-.68-1.46h0c-.48-1.19-.7-2.08-.7-2.08-2.28-5.8,4.09-12.93,4.09-12.93.2.49.45.95.72,1.38,1.41,2.26,3.57,3.73,5.12,4.56,0,0-2.94,2.85-1.99,4.85Z"/>
          <path class="cls-6" d="m127.74,73.13c.86.86,1.52,2.47,1.52,2.47.86,3.8-1.33,5.7-1.33,5.7-2,1.9-4.56.86-4.56.86-1.78-.71-3.04-2.41-3.89-4.01,4,3.31,6.36,1.78,6.36,1.78,3.8-2.33.19-7.46.19-7.46-.95-2,1.99-4.85,1.99-4.85,1.11.59,1.91.86,1.91.86-2.85,2.66-2.19,4.66-2.19,4.66Z"/>
        </g>
      </g>
      <g>
        <g>
          <path class="cls-2" d="m144.15,80.7l-1.28,3.27.16,1.77s0,0,.01,0l.56-.81.64-.75.95-1.12.94-1.11.45-.73c-1.14.03-1.85-.14-2.43-.51Z"/>
          <path class="cls-2" d="m143.21,79.7s-1.06,1.93-.94,2.73c.29.89.59,1.54.59,1.54l1.28-3.27c-.43-.27-.73-.63-.93-1Z"/>
          <path class="cls-2" d="m142.83,77.04l-.29.64c-.67,1.49-.77,3.17-.27,4.72v.03c-.11-.8.95-2.73.95-2.73-.67-1.21-.39-2.66-.39-2.66Z"/>
        </g>
        <g>
          <path class="cls-13" d="m145.5,71.46s-3.61,5.13.19,7.46c0,0,2.36,1.53,6.36-1.78.27-.51.5-1.01.68-1.46h0c.48-1.19.7-2.08.7-2.08,2.28-5.8-4.09-12.93-4.09-12.93-.2.49-.45.95-.72,1.38-1.41,2.26-3.57,3.73-5.12,4.56,0,0,2.94,2.85,1.99,4.85Z"/>
          <path class="cls-6" d="m143.79,72.13c-.86.86-1.52,2.47-1.52,2.47-.86,3.8,1.33,5.7,1.33,5.7,2,1.9,4.56.86,4.56.86,1.78-.71,3.04-2.41,3.89-4.01-4,3.31-6.36,1.78-6.36,1.78-3.8-2.33-.19-7.46-.19-7.46.95-2-1.99-4.85-1.99-4.85-1.11.59-1.91.86-1.91.86,2.85,2.66,2.19,4.66,2.19,4.66Z"/>
        </g>
      </g>
      <g>
        <path class="cls-12" d="m148.86,61.96s0,0,0,0c-1.47,3.38-5.04,6.91-13.47,7.29-.39.02-.78.04-1.17.07-1.74.14-7.91.23-11.06-4.87h0c-.06-.2-1.91-6.22,1.48-9.98,3.45-3.82,8.31-4.06,10.75.68,0,0,.51-4.03,4.79-4.59,1.7-.22,3.41.21,4.84,1.16,2.16,1.43,5.01,4.47,3.85,10.24Z"/>
        <path class="cls-15" d="m148.86,61.96c1.16-5.76-1.69-8.81-3.85-10.24-1.43-.95-3.14-1.38-4.84-1.16-4.28.56-4.79,4.59-4.79,4.59-2.44-4.74-7.3-4.5-10.75-.68-3.39,3.76-1.54,9.78-1.48,9.98-.64-1.04-1.16-2.29-1.49-3.8,0,0-2.97-10.97,9.82-15.83,0,0,.35-2.6-.23-3.84.07.06,2.21,1.94,2.09,3.39,0,0,.93-1.92,2.67-2.49,0,0-1.28,1.69-1.16,2.37,0,0,12.46-1.13,14.88,11.3,0,0,.55,3.14-.87,6.41Z"/>
        <path class="cls-9" d="m123.15,64.46s0,0,0,0"/>
        <path class="cls-17" d="m123.15,64.45s-.37-1.85,4.44-5.91c0,0,3.23-2.75,4.27-.36.02.06.05.11.07.17.14.33.81,2.08-.98,3.02-.36.19-.71.39-1.03.63-1.22.9-3.41,3.01-2.8,6.06,0,0-2.74-1.39-3.97-3.6Z"/>
        <path class="cls-17" d="m148.55,62.61s-.33-2.15-5.81-5.24c0,0-3.68-2.09-4.26.44-.01.06-.03.12-.04.18-.08.35-.4,2.2,1.53,2.78.39.12.77.25,1.13.42,1.36.66,3.91,2.31,3.88,5.43,0,0,2.77-1.61,3.57-4.02Z"/>
        <circle class="cls-16" cx="130.12" cy="59.22" r="1.6"/>
        <circle class="cls-1" cx="130.36" cy="58.48" r=".49"/>
        <circle class="cls-1" cx="129.5" cy="60.2" r=".37"/>
        <circle class="cls-20" cx="140.35" cy="58.48" r="1.6"/>
        <circle class="cls-1" cx="140.47" cy="57.86" r=".49"/>
        <circle class="cls-1" cx="139.86" cy="59.46" r=".37"/>
        <ellipse class="cls-18" cx="135.85" cy="61.99" rx="2.16" ry=".92" transform="translate(-1.7 3.88) rotate(-1.63)"/>
        <path class="cls-7" d="m133.57,63.53s2.71,1.48,4.68-.62"/>
        <line class="cls-7" x1="135.91" y1="64.03" x2="135.88" y2="62.92"/>
      </g>
      <g>
        <path class="cls-3" d="m369.74,32.5h-2.68s-1.3-.58-1.3-.58c0,0,0,0,0,0l.71-.17.68-.24,1-.36.99-.35.63-.11c-.21.78-.21,1.33-.02,1.83Z"/>
        <path class="cls-3" d="m370.34,33.42s-1.63.22-2.21-.08c-.62-.44-1.06-.83-1.06-.83h2.68c.13.37.35.67.6.91Z"/>
        <path class="cls-3" d="m372.27,34.4l-.53.03c-1.23.06-2.52-.32-3.6-1.08h-.02c.58.29,2.21.07,2.21.07.79.79,1.94.99,1.94.99Z"/>
      </g>
      <g>
        <path class="cls-4" d="m369.81,53.62l-2.82-1.07-1.14-1.14s0,0,0,0l.81.1.81.02,1.2.03,1.19.03.7.13c-.54.74-.75,1.31-.76,1.91Z"/>
        <path class="cls-4" d="m370.07,54.82s-1.8-.42-2.3-.98c-.47-.71-.78-1.3-.78-1.3l2.82,1.07c0,.44.1.85.26,1.2Z"/>
        <path class="cls-4" d="m371.71,56.64l-.57-.19c-1.32-.43-2.52-1.34-3.35-2.58v-.02c.48.55,2.28.98,2.28.98.52,1.15,1.64,1.81,1.64,1.81Z"/>
      </g>
      <g>
        <path class="cls-11" d="m408.8,45.38c-2.21,15.73-21.26,14.03-27.86,12.94-1.41-.23-2.83-.45-4.25-.62-2.3-.28-5.93-.93-7.31-2.33-.02-.02,0-.04.02-.04,19.88,3.97,27.48-.12,27.48-.12,0,0,11.62-4.47,10.18-15.94-1.41-11.17-10.27-16.09-10.73-16.34-.01,0-.01-.02,0-.03.39-.67.78-1.42,1.14-2.24,0-.01.02-.02.03-.01.56.23,13.93,6.05,11.3,24.72Z"/>
        <path class="cls-14" d="m396.88,55.21s-7.62,4.1-27.55.1c-.42-.45-.46-1-.46-1.59,0,0,0-2.98,3.87-2.98,0,0,10.73-.3,15.49-1.19,0,0,1.49-6.26-1.79-12.22l-11.07-2.21c-1.05-.21-2.11-.38-3.16-.55-1.22-.19-3.34-.86-3.34-3.2,0,0,0-2.41,3.47-2.24,1.37.07,2.74.12,4.11.08l3.64-.1c2.06-.05,4.13-.06,6.19.08,2.16.14,6.58-.41,10.03-6.27,0,0,9.31,4.88,10.75,16.35,1.44,11.47-10.18,15.94-10.18,15.94Z"/>
      </g>
      <g>
        <path class="cls-12" d="m400.05,21.59s0,0,0,0c-1.37,3.42-4.84,7.05-13.26,7.67-.39.03-.78.06-1.17.1-1.74.19-7.9.45-11.2-4.56h0c-.07-.2-2.09-6.17,1.2-10.02,3.34-3.92,8.2-4.29,10.77.38,0,0,.4-4.04,4.66-4.72,1.69-.27,3.42.12,4.87,1.02,2.2,1.37,5.14,4.33,4.14,10.12Z"/>
        <path class="cls-15" d="m400.05,21.59c1-5.79-1.94-8.75-4.14-10.12-1.45-.9-3.18-1.29-4.87-1.02-4.26.68-4.66,4.72-4.66,4.72-2.57-4.67-7.42-4.3-10.77-.38-3.29,3.85-1.27,9.82-1.2,10.02-.67-1.02-1.22-2.26-1.6-3.76,0,0-3.28-10.88,9.37-16.1,0,0,.27-2.61-.34-3.83.07.05,2.26,1.88,2.19,3.33,0,0,.88-1.95,2.6-2.56,0,0-1.23,1.73-1.09,2.4,0,0,12.42-1.48,15.2,10.87,0,0,.64,3.12-.69,6.43Z"/>
        <path class="cls-9" d="m374.42,24.81s0,0,0,0"/>
        <path class="cls-17" d="m374.42,24.8s-.42-1.83,4.27-6.04c0,0,3.15-2.84,4.25-.48.03.06.05.11.08.17.15.32.86,2.06-.9,3.05-.35.2-.7.41-1.01.66-1.19.94-3.32,3.1-2.62,6.14,0,0-2.78-1.31-4.07-3.49Z"/>
        <path class="cls-17" d="m399.75,22.24s-.39-2.14-5.96-5.07c0,0-3.74-1.99-4.24.56-.01.06-.02.12-.03.18-.07.35-.34,2.21,1.61,2.74.39.11.77.23,1.14.39,1.38.62,3.98,2.2,4.04,5.31,0,0,2.73-1.69,3.45-4.12Z"/>
        <circle class="cls-16" cx="381.23" cy="19.37" r="1.6"/>
        <circle class="cls-1" cx="381.46" cy="18.63" r=".49"/>
        <circle class="cls-1" cx="380.65" cy="20.38" r=".37"/>
        <circle class="cls-20" cx="391.44" cy="18.34" r="1.6"/>
        <circle class="cls-1" cx="391.55" cy="17.72" r=".49"/>
        <circle class="cls-1" cx="390.98" cy="19.34" r=".37"/>
        <ellipse class="cls-18" cx="387.04" cy="21.98" rx="2.16" ry=".92" transform="translate(-.62 21.99) rotate(-3.25)"/>
        <path class="cls-7" d="m384.81,23.59s2.75,1.4,4.66-.75"/>
        <line class="cls-7" x1="387.16" y1="24.02" x2="387.1" y2="22.9"/>
      </g>
    </g>
  </g>
</svg>