<?xml version="1.0" encoding="UTF-8"?>
<svg id="Layer_2" data-name="Layer 2" xmlns="http://www.w3.org/2000/svg" viewBox="0 0 448.46 89.28">
  <defs>
    <style>
      .cls-1 {
        fill: #b6e9ff;
      }
    </style>
  </defs>
  <g id="Layer_1-2" data-name="Layer 1">
    <g>
      <path class="cls-1" d="m66.1.28c4.27,0,7.73,3.18,7.73,7.1v42.48c0,26.28-12.27,39.42-36.94,39.42S1.21,78.78,0,55.11c-.05-1.06.87-1.95,2.02-1.95h21.19c.84,0,1.51.62,1.54,1.39.3,6.71,4.22,10.12,11.86,10.12s11.88-3.7,11.88-10.97v-24.77h-3.01c-9.01,0-16.84-4.68-20.75-11.54-1.71-2.99-2.67-6.39-2.67-10h0c0-3.92,3.46-7.1,7.73-7.1h36.31Z"/>
      <path class="cls-1" d="m294.21,38.78v38.49c0,7.6-6,11.96-12.94,11.96s-12.94-4.36-12.94-11.96v-7.41c0-6.26-5.43-11.34-12.14-11.34h0c-6.7,0-12.14,5.08-12.14,11.34v7.41c0,7.6-6,11.96-12.81,11.96s-13.07-4.36-13.07-11.96v-38.49c0-.68,0-1.36.03-2.02C218.85,12.44,231.39.28,255.93.28s38.28,12.83,38.28,38.49Z"/>
      <g>
        <path class="cls-1" d="m209.94,38.84v38.44c0,7.59-6,11.94-12.94,11.94s-12.94-4.36-12.94-11.94v-42.17c0-7.09-4-10.7-12.14-10.7s-12.14,3.61-12.14,10.7v42.17c0,7.59-6,11.94-12.81,11.94-3.21,0-6.19-.89-8.49-2.59,13.82-4.92,20.69-16.87,20.69-35.85V12.34c0-4.15-1.79-7.33-4.57-9.36,4.83-1.73,10.52-2.58,17.05-2.58,25.47,0,38.28,12.81,38.28,38.44Z"/>
        <path class="cls-1" d="m133.92,38.84v38.44c0,4.15,1.8,7.33,4.58,9.36-4.83,1.73-10.52,2.59-17.05,2.59-25.47,0-38.28-12.81-38.28-38.44V12.34c0-7.59,6-11.94,12.94-11.94s12.94,4.35,12.94,11.94v42.17c0,7.09,4,10.7,12.14,10.7s12.14-3.61,12.14-10.7V12.34c0-7.59,6-11.94,12.81-11.94,3.2,0,6.19.89,8.5,2.58-13.82,4.92-20.7,16.87-20.7,35.85Z"/>
      </g>
      <g>
        <path class="cls-1" d="m398.11,42.25c-1.45-12.33-2.22-25.49-2.83-37.89-.01-.5-.1-1.17.05-1.67.45-2.28,3.46-3.36,5.26-2,0,0,.55.35.55.35,15.32,9.8,30.63,20.2,45.43,30.79,1.87,1.15,2.56,4.17,1.13,6.01-.32.47-1.85,2.09-2.25,2.56-15.16,16.9-30.61,33.45-47.34,48.87,7.92-11.58,16.45-22.63,25.13-33.55,5.94-7.45,12.12-14.92,18.28-22.19-.61.83-1.12,3.06.73,4.48-15.02-10.28-30.04-21.09-44.5-32.13,0,0-.52-.4-.52-.4,1.56,1.14,3.83-.18,3.75-1.95,0,0,0,.16,0,.16l-.03.65c-.61,12.41-1.4,25.55-2.83,37.89h0Z"/>
        <path class="cls-1" d="m385.71,47.04c1.45,12.33,2.22,25.49,2.83,37.89.01.5.1,1.17-.05,1.67-.45,2.28-3.46,3.36-5.26,2,0,0-.55-.35-.55-.35-15.32-9.8-30.63-20.2-45.43-30.79-1.87-1.15-2.56-4.17-1.13-6.01.32-.47,1.85-2.09,2.25-2.56,15.16-16.9,30.61-33.45,47.34-48.87-7.92,11.58-16.45,22.63-25.13,33.55-5.94,7.45-12.12,14.92-18.28,22.19.61-.83,1.12-3.06-.73-4.48,15.02,10.28,30.04,21.09,44.5,32.13,0,0,.52.4.52.4-1.56-1.14-3.83.18-3.75,1.95,0,0,0-.16,0-.16l.03-.65c.61-12.41,1.4-25.55,2.83-37.89h0Z"/>
      </g>
    </g>
  </g>
</svg>