<?xml version="1.0" encoding="UTF-8"?>
<svg id="Layer_2" data-name="Layer 2" xmlns="http://www.w3.org/2000/svg" viewBox="0 0 452.04 94.68">
  <defs>
    <style>
      .cls-1 {
        fill: #fff;
      }

      .cls-2 {
        fill: #073763;
      }
    </style>
  </defs>
  <g id="Layer_1-2" data-name="Layer 1">
    <g>
      <g>
        <path class="cls-2" d="m66.1,2.98c4.27,0,7.73,3.18,7.73,7.1v42.48c0,26.28-12.27,39.42-36.94,39.42S1.21,81.48,0,57.81c-.05-1.06.87-1.95,2.02-1.95h21.19c.84,0,1.51.62,1.54,1.39.3,6.71,4.22,10.12,11.86,10.12s11.88-3.7,11.88-10.97v-24.77h-3.01c-9.01,0-16.84-4.68-20.75-11.54-1.71-2.99-2.67-6.39-2.67-10h0c0-3.92,3.46-7.1,7.73-7.1h36.31Z"/>
        <g>
          <path class="cls-2" d="m294.21,41.47v38.49c0,7.6-6,11.96-12.94,11.96s-12.94-4.36-12.94-11.96v-7.41c0-6.26-5.43-11.34-12.14-11.34h0c-6.7,0-12.14,5.08-12.14,11.34v7.41c0,7.6-6,11.96-12.81,11.96s-13.07-4.36-13.07-11.96v-38.49c0-.68,0-1.36.03-2.02.65-24.31,13.19-36.47,37.72-36.47s38.28,12.83,38.28,38.49Z"/>
          <ellipse class="cls-1" cx="256.19" cy="33.58" rx="15.5" ry="14.48"/>
        </g>
        <g>
          <path class="cls-2" d="m209.94,41.54v38.44c0,7.59-6,11.94-12.94,11.94s-12.94-4.36-12.94-11.94v-42.17c0-7.09-4-10.7-12.14-10.7s-12.14,3.61-12.14,10.7v42.17c0,7.59-6,11.94-12.81,11.94-3.21,0-6.19-.89-8.49-2.59,13.82-4.92,20.69-16.87,20.69-35.85V15.04c0-4.15-1.79-7.33-4.57-9.36,4.83-1.73,10.52-2.58,17.05-2.58,25.47,0,38.28,12.81,38.28,38.44Z"/>
          <path class="cls-2" d="m133.92,41.54v38.44c0,4.15,1.8,7.33,4.58,9.36-4.83,1.73-10.52,2.59-17.05,2.59-25.47,0-38.28-12.81-38.28-38.44V15.04c0-7.59,6-11.94,12.94-11.94s12.94,4.35,12.94,11.94v42.17c0,7.09,4,10.7,12.14,10.7s12.14-3.61,12.14-10.7V15.04c0-7.59,6-11.94,12.81-11.94,3.2,0,6.19.89,8.5,2.58-13.82,4.92-20.7,16.87-20.7,35.85Z"/>
        </g>
      </g>
      <g>
        <path class="cls-2" d="m398.11,44.95c-2.85-12.56-4.36-25.14-5.54-37.89-.86-5.29,5.29-9.02,9.62-5.95.33.2,1.35.78,1.69,1,15.34,9.01,30.39,19.01,44.75,29.48,3.67,2.33,4.63,8.19,1.62,11.53-1.84,2-3.79,4.21-5.66,6.17-14.48,15.31-29.47,30.11-46.48,42.7,3.33-6.34,7.08-12.31,10.92-18.2,9.21-13.98,19.32-27.28,29.99-40.14-2.71,2.9-1.87,8.04,1.16,10.03-14.77-9.9-29.31-20.61-43.04-31.93,0,0-1.01-.83-1.01-.83,0,0-.5-.42-.5-.42,2.81,2.06,7.27.4,7.97-3.06.07-.39.17-.93.13-1.18,0,0-.02.16-.02.16l-.06.65c-1.18,12.75-2.69,25.33-5.54,37.89h0Z"/>
        <path class="cls-2" d="m385.71,49.73c2.85,12.56,4.36,25.14,5.54,37.89.86,5.29-5.29,9.02-9.62,5.95-.33-.2-1.35-.78-1.69-1-15.34-9.01-30.39-19.01-44.75-29.48-3.67-2.33-4.63-8.19-1.62-11.53,1.84-2,3.79-4.21,5.66-6.17,14.48-15.31,29.47-30.11,46.48-42.7-3.33,6.34-7.08,12.31-10.92,18.2-9.21,13.98-19.32,27.28-29.99,40.14,2.71-2.9,1.87-8.04-1.16-10.03,14.77,9.9,29.31,20.61,43.04,31.93,0,0,1.01.83,1.01.83l.5.42c-2.81-2.06-7.27-.4-7.97,3.06-.07.39-.17.93-.13,1.18,0,0,.02-.16.02-.16l.06-.65c1.18-12.75,2.69-25.33,5.54-37.89h0Z"/>
      </g>
    </g>
  </g>
</svg>