<?xml version="1.0" encoding="UTF-8"?>
<svg id="Layer_2" data-name="Layer 2" xmlns="http://www.w3.org/2000/svg" viewBox="0 0 224.96 318.99">
  <defs>
    <style>
      .cls-1 {
        stroke: #940004;
      }

      .cls-1, .cls-2, .cls-3, .cls-4, .cls-5, .cls-6, .cls-7, .cls-8, .cls-9 {
        stroke-miterlimit: 10;
      }

      .cls-1, .cls-2, .cls-3, .cls-4, .cls-9 {
        stroke-width: .99px;
      }

      .cls-1, .cls-5, .cls-8 {
        fill: none;
      }

      .cls-10, .cls-4 {
        fill: #fff;
      }

      .cls-11 {
        fill: #43302a;
      }

      .cls-2 {
        fill: #d19267;
      }

      .cls-2, .cls-3, .cls-4, .cls-5, .cls-6, .cls-7, .cls-9 {
        stroke: #462b22;
      }

      .cls-12 {
        fill: #8a4849;
      }

      .cls-3, .cls-7 {
        fill: #d3966a;
      }

      .cls-13 {
        fill: #ab734e;
      }

      .cls-14, .cls-9 {
        fill: #ad7449;
      }

      .cls-5 {
        stroke-width: .74px;
      }

      .cls-6 {
        fill: #ffd8b7;
      }

      .cls-6, .cls-8 {
        stroke-width: .79px;
      }

      .cls-15 {
        fill: #d6966a;
      }

      .cls-7 {
        stroke-width: .92px;
      }

      .cls-16 {
        fill: #442f2a;
      }

      .cls-17 {
        fill: #462b22;
      }

      .cls-18 {
        fill: #af754f;
      }

      .cls-8 {
        stroke: #442f2a;
      }

      .cls-19 {
        fill: #af7148;
      }

      .cls-20 {
        fill: #af744c;
      }
    </style>
  </defs>
  <g id="Layer_1-2" data-name="Layer 1">
    <g>
      <path class="cls-3" d="m163.64,291.92c-27.8,18.87-34.75-6.95-34.75-6.95l-2.98,1.99-2.98-.99c-7.94,22.84-27.8,18.87-27.8,18.87-13.9,20.85-35.75,10.92-35.75,10.92-15.89-1.99-32.77,1.99-44.68-36.74s25.82-110.22,25.82-110.22c48.66,17.87,108.23-2.98,108.23-2.98,24.82,35.75,25.82,67.52,25.82,67.52,3.97,50.64-10.92,58.59-10.92,58.59Z"/>
      <path class="cls-17" d="m121.45,286.82c-.09-9.67-5.56-18.51-11.25-26.01-1.57-1.31-4.34-4.67-5.84-6.95-10.27-15.14-14.7-33.36-17.21-51.25,0,0-.95-9-.95-9,.66,5.39,1.77,12.63,2.86,17.84,3.22,14.57,7.98,29.17,16.81,41.33,1.77,2.46,3.81,4.8,5.98,6.69,3.17,3.87,6.21,8.12,8.44,12.61,2.29,4.66,4.19,9.7,4.15,15,0,0-2.97-.27-2.97-.27h0Z"/>
      <path class="cls-17" d="m134.85,195.6c2.91,8.15,3.06,16.95,3.61,25.5.21,6.22-2.05,12.27-3.47,18.21-1.64,6.03-3.43,11.91-5.45,17.83-1.98,7.41-1.84,15.23-.81,22.78,0,0,.63,3.79.63,3.79l-2.93.51c-.34-2.38-.74-5.55-.86-7.91-.37-6.63.03-13.38,1.97-19.76,2.11-5.61,4.18-11.55,6.04-17.66,1.61-5.85,4-11.66,4.02-17.75-.27-8.54-.12-17.33-2.75-25.55h0Z"/>
      <path class="cls-2" d="m99.45,278.11c-1.69-11.39-7.5-20.9-15.17-26.47-3.65-2.66-7.75-4.42-12.01-5.05-2.33-.36-4.72-.38-7.12-.02-3.85.57-7.39,2.05-10.51,4.24-6.37,4.46-10.95,11.92-12.78,20.7-.99,4.76-1.18,9.91-.4,15.19,2.93,19.79,18.29,33.91,34.3,31.54,16.01-2.36,26.61-20.34,23.68-40.13Z"/>
      <path class="cls-14" d="m90.16,268.09s0,6.57-6.5,4.27c-1.84-.65-3.76-1.07-5.72-1.05-.32,0-.67.01-1.03.02-7.73.27-14.91,3.7-20.49,9.06-2.58,2.48-5.84,3.54-7.97-3.37-2.27-7.38,1.95-10.44,5.98-11.72,2.6-.82,5.37-.79,8.03-.21,2.28.49,6.24.65,11.01-2.08,5.87-3.36,13.41-1.22,16.54,4.78.05.1.1.19.15.29Z"/>
      <path class="cls-4" d="m54.64,250.8c-6.37,4.46-10.95,11.92-12.78,20.7,0,0-2.23-34.43,14.25-49.94-5.25,14.05-1.47,29.23-1.47,29.23Z"/>
      <path class="cls-4" d="m72.27,246.58c-2.33-.36-4.72-.38-7.12-.02-3.85.57-7.39,2.05-10.51,4.24,0,0-3.62-14.52,1.14-28.31.22-.64.62-1.21,1.13-1.66,0,0,0,0,.01-.01.25-.22.63-.17.82.1,5.07,7.33,14.52,25.66,14.52,25.66Z"/>
      <path class="cls-4" d="m84.27,251.63c-3.65-2.66-7.75-4.42-12.01-5.05,0,0-9.87-19.12-14.84-26.11,0,0,0-.02,0-.01,1.22.88,28.85,20.93,26.84,31.18Z"/>
      <path class="cls-13" d="m44.98,295.89s29.38,33.76,54.57-10.92c0,0,2.1,25.82-23.09,30.78s-31.48-19.86-31.48-19.86Z"/>
      <path class="cls-9" d="m221.3,255.91c-.38,22.48-8.96,34.65-13.63,44.94-4.96,10.92-27.8,5.96-27.8,5.96l-31.78-.99,15.89-14.89c14.89-14.89,10.92-52.63,10.92-52.63l9.93,9.93s10.74-8.3,21.16-6.96c3.24.41,6.44,1.76,9.28,4.58h0c2.31,2.28,4.38,5.55,6.03,10.07Z"/>
      <path class="cls-4" d="m224.21,223.4c-.99,0-18.22,17.86-18.22,17.86-8.45-1.09-17.12,4.17-20.09,6.19-.2.14-.44-.12-.29-.31,13.26-17.99,29.86-22.38,36.26-23.42,1.7-.29,2.34-.33,2.34-.33Z"/>
      <path class="cls-4" d="m221.28,251.63c.04,1.47.05,2.9.02,4.28-1.65-4.52-3.71-7.78-6.03-10.06h0c-.29-9.57,7.93-20.69,9.13-22.26.02-.03.07,0,.05.04-4.85,11.89-3.17,28.01-3.17,28.01Z"/>
      <path class="cls-1" d="m220.98,255.94s0-.02,0-.03"/>
      <path class="cls-15" d="m202.04,282.98s15.22,7.94-2.65,12.91c-8.94,2.48-14.65-1.49-18.12-6.08s-4.89-11-3.73-16.91c1.5-7.69,5.18-19.69,14.05-25.82,6.1-4.23,14.26-4.46,20.62-.63,4.54,2.73,8.36,7.76,5.51,16.92-1.5,4.83-5.85,8.35-10.9,8.44-.12,0-.25,0-.37,0-5.75-.03-8.7,6.93-4.6,10.97.07.07.14.14.21.21Z"/>
      <path class="cls-4" d="m215.28,245.84c-2.84-2.82-6.05-4.17-9.28-4.58,0,0,6.7-12.39,17.87-17.55.18-.08.36.13.24.29-1.9,2.56-9.1,12.89-8.82,21.84Z"/>
      <path class="cls-20" d="m13.21,251.7s2.77,29.28,27.8,33.76c0,0,0,17.87,17.87,29.79,0,0-11.84,1.24-23.83-4.96-9.63-4.99-18.59-20.52-21.59-39.52-.9-5.7-.67-13.65-.26-19.07Z"/>
      <path class="cls-18" d="m105.68,291.49c4.57-3.35,12.15-8.84,9.81-22.91,0,0,6.45,10.43,6.45,19.36,0,0-8.44,19.36-26.31,16.38h0c2.06-5.15,5.58-9.56,10.05-12.84Z"/>
      <path class="cls-19" d="m129.35,272.37s3.89,12.66,22.12,12.06c14.65-.48,22.6-19.78,22.6-19.78,0,0-.82,19.14-15.9,28.42-3.75,2.31-8.11,3.56-12.51,3.27-6.99-.45-16.3-4.67-16.3-23.98Z"/>
      <path class="cls-20" d="m96.62,235.81s6.19,15.09,22.46,11.02,18.25-22.94,18.25-22.94c0,0,.99,5.96-7.79,28.95-1.13,2.96-1.72,5.87-2.02,8.96-.2,2.08-.52,4.54-.77,7-.33,3.3-.16,6.64.49,9.9l1.15,5.77-2.22,2.48-2.75-1.49s-.29-3.16-2.26-8.76c-2.13-6.07-5.5-11.63-9.73-16.48-4.92-5.63-12.81-15.7-14.82-24.41Z"/>
      <path class="cls-4" d="m117.93,302.89l-2.7,5.04c-9.19,1.63-15.29-1.66-15.29-1.66l-4.31-1.95c6.45,1.49,12.25-.42,16.27-3.02l6.04,1.58Z"/>
      <path class="cls-4" d="m121.94,295.38l-4.01,7.51-6.04-1.58c2.87-1.86,5.07-4.26,6.72-6.6l3.33.68Z"/>
      <path class="cls-4" d="m125.91,287.95l-3.97,7.44-3.33-.68c3.16-4.47,4.32-8.75,4.32-8.75l2.98,1.99Z"/>
      <path class="cls-4" d="m136.83,295.96l-14.89,13.86-9.84,2.92s-.05-.02-.04-.05l3.17-4.76,2.7-5.04,4.01-7.51,3.97-7.44,2.98-3.97c2.27,6.19,4.71,9.68,7.94,11.99Z"/>
      <path class="cls-4" d="m144.21,298.85s-8.1,9.83-12.7,10.88c-5.39.34-9.57.09-9.57.09l14.89-13.86c2.39,1.72,4.92,2.57,7.38,2.89Z"/>
      <path class="cls-4" d="m159.36,295.25l-2.85,2.94c-6.58,6.77-15.41,10.93-24.83,11.53h-.17c4.6-1.04,12.7-10.87,12.7-10.87,7.91,1.02,15.15-3.59,15.15-3.59Z"/>
      <path class="cls-17" d="m185.27,248.47c-4.41,8.21-8.84,16.82-10.03,26.18.55-7.09,3.28-13.8,6.08-20.26.97-2.16,1.98-4.29,3.08-6.4l.87.48h0Z"/>
      <path class="cls-17" d="m45.92,239.58c-7.03,2.44-12.29,8.56-16.33,14.6,2.89-4.84,6.44-9.43,11.02-12.79,1.56-1.11,3.16-2.12,5.06-2.78l.25.96h0Z"/>
      <path class="cls-17" d="m43.49,194.61c-2.2,15.33-3.2,31.02-1.24,46.4,0,0-.98.13-.98.13-1.64-15.53-.31-31.19,2.22-46.53h0Z"/>
      <g>
        <path class="cls-6" d="m177.19,136.61s0,.02,0,.02c-9.44,21.74-32.36,44.43-86.6,46.83-2.52.11-5.04.27-7.55.46-11.19.88-50.82,1.47-71.09-31.32h0c-.4-1.29-12.3-40,9.51-64.15,22.18-24.56,53.44-26.09,69.1,4.39,0,0,3.29-25.9,30.79-29.47,10.91-1.42,21.94,1.37,31.1,7.45,13.86,9.19,32.2,28.76,24.75,65.79Z"/>
        <path class="cls-7" d="m177.19,136.61c7.45-37.03-10.89-56.6-24.75-65.79-9.16-6.08-20.19-8.87-31.1-7.45-27.5,3.57-30.79,29.47-30.79,29.47-15.66-30.48-46.92-28.95-69.1-4.39C-.36,112.6,11.54,151.31,11.94,152.59c-4.12-6.67-7.44-14.71-9.56-24.42,0,0-19.07-70.52,63.12-101.73,0,0,2.24-16.69-1.49-24.68.42.36,14.18,12.48,13.44,21.77,0,0,5.98-12.34,17.18-15.97,0,0-8.22,10.89-7.47,15.25,0,0,80.06-7.25,95.64,72.59,0,0,3.52,20.15-5.61,41.2Z"/>
        <path class="cls-5" d="m11.95,152.63s0,0,0-.02"/>
        <path class="cls-12" d="m11.94,152.6s-2.37-11.86,28.53-38c0,0,20.73-17.66,27.42-2.34.16.37.31.73.47,1.1.92,2.11,5.18,13.39-6.31,19.42-2.3,1.21-4.55,2.5-6.63,4.05-7.82,5.81-21.92,19.32-17.96,38.94,0,0-17.59-8.93-25.51-23.16Z"/>
        <path class="cls-12" d="m175.15,140.74s-2.12-13.8-37.37-33.68c0,0-23.67-13.45-27.37,2.85-.09.39-.16.78-.25,1.17-.51,2.24-2.57,14.13,9.85,17.89,2.48.75,4.94,1.6,7.27,2.73,8.77,4.24,25.15,14.86,24.95,34.87,0,0,17.82-10.36,22.92-25.83Z"/>
        <circle class="cls-11" cx="56.71" cy="118.96" r="10.3"/>
        <circle class="cls-10" cx="58.29" cy="114.2" r="3.17"/>
        <circle class="cls-10" cx="52.75" cy="125.29" r="2.38"/>
        <circle class="cls-17" cx="122.46" cy="114.2" r="10.3"/>
        <circle class="cls-10" cx="123.26" cy="110.24" r="3.17"/>
        <circle class="cls-10" cx="119.29" cy="120.54" r="2.38"/>
        <ellipse class="cls-16" cx="93.55" cy="136.78" rx="13.86" ry="5.94" transform="translate(-3.84 2.71) rotate(-1.63)"/>
        <path class="cls-8" d="m78.89,146.68s17.43,9.51,30.1-3.96"/>
        <line class="cls-8" x1="93.94" y1="149.89" x2="93.72" y2="142.72"/>
      </g>
    </g>
  </g>
</svg>